<?xml version="1.0" encoding="UTF-8"?>
<svg width="19px" height="19px" viewBox="0 0 19 19" version="1.1" xmlns="http://www.w3.org/2000/svg" xmlns:xlink="http://www.w3.org/1999/xlink">
    <!-- Generator: Sketch 53 (72520) - https://sketchapp.com -->

    <desc>Created with Sketch.</desc>
    <g id="Ver-3" stroke="none" stroke-width="1" fill="none" fill-rule="evenodd">
        <g id="Live-Components_Widget" transform="translate(-1405.000000, -438.000000)" fill="#0AD0F4">
            <g id="Group-7" transform="translate(1389.000000, 325.000000)">
                <g id="Group-6" transform="translate(8.000000, 24.000000)">
                    <g id="Classes" transform="translate(0.000000, 81.000000)">
                        <g id="Icons-/-Dashboard-/-Active-/-Study-Lessons" transform="translate(8.000000, 8.000000)">
                            <path d="M16.8625,-7.03142167e-17 L5.5375,-7.03142167e-17 C4.49789943,0.00690816923 3.65681727,0.859204761 3.65,1.91266667 L3.65,13.376 C3.65,14.4323366 4.49506253,15.2886667 5.5375,15.2886667 L16.8625,15.2886667 C17.3641172,15.2920668 17.8461623,15.0916463 18.2008672,14.7322121 C18.555572,14.3727778 18.7533554,13.8843055 18.75,13.376 L18.75,1.976 C18.766941,1.45784716 18.5755841,0.954921793 18.2197565,0.582410254 C17.8639288,0.209898715 17.3741155,-0.000284298952 16.8625,-7.03142167e-17 Z M13.1125,8.018 L9.6875,10.1333333 C9.55237133,10.215446 9.38410818,10.2175861 9.24698823,10.1389362 C9.10986828,10.0602863 9.025075,9.91299677 9.025,9.75333333 L9.025,5.48466667 C9.01056848,5.31827802 9.08965,5.15779247 9.22957563,5.06950732 C9.36950125,4.98122217 9.54651821,4.98012408 9.6875,5.06666667 L13.1625,7.23266667 C13.306609,7.30920585 13.396899,7.4604602 13.396899,7.62533333 C13.396899,7.79020647 13.306609,7.94146082 13.1625,8.018 L13.1125,8.018 Z" id="Shape"></path>
                            <path d="M15,17.3786667 L5.5125,17.3786667 C3.35453449,17.3717136 1.60686163,15.6007384 1.6,13.414 L1.6,3.8 C1.60341187,3.58395649 1.52022247,3.37574535 1.36944741,3.22295996 C1.21867235,3.07017456 1.01320084,2.98587597 0.8,2.98933333 C0.587826808,2.98933333 0.384343678,3.07474261 0.234314575,3.2267721 C0.0842854723,3.37880159 3.74751093e-16,3.58499783 4.42991455e-16,3.8 L4.42991455e-16,13.3886667 C-0.00331895896,14.8735265 0.575596951,16.298906 1.60939205,17.351236 C2.64318715,18.403566 4.04717774,18.9966444 5.5125,19 L15,19 C15.4418278,19 15.8,18.6370522 15.8,18.1893333 C15.8,17.7416145 15.4418278,17.3786667 15,17.3786667 Z" id="Shape"></path>
                        </g>
                    </g>
                </g>
            </g>
        </g>
    </g>
</svg>
