<?xml version="1.0" encoding="UTF-8"?>
<svg width="20px" height="21px" viewBox="0 0 20 21" version="1.1" xmlns="http://www.w3.org/2000/svg" xmlns:xlink="http://www.w3.org/1999/xlink">
    <!-- Generator: Sketch 54 (76480) - https://sketchapp.com -->

    <desc>Created with Sketch.</desc>
    <g id="Ver-3" stroke="none" stroke-width="1" fill="none" fill-rule="evenodd">
        <g id="Live-Components_Widget" transform="translate(-1405.000000, -492.000000)">
            <g id="Group-7" transform="translate(1389.000000, 325.000000)">
                <g id="Group-6" transform="translate(8.000000, 24.000000)">
                    <g id="Quizzes" transform="translate(1.000000, 137.000000)">
                        <g id="Icons-/-Exam-Info-/-Inactive-/-Quiz" transform="translate(7.000000, 6.000000)">
                            <path d="M18.5127554,6.56863608 L18.1074752,8.94198483 C18.0199263,9.45391049 17.6884443,9.89405352 17.2192111,10.1224014 L16.4660132,10.4339978 C16.5996963,9.93507217 16.6719486,9.41135768 16.6719486,8.87068666 L16.6719486,4.68629995 L16.9260522,4.68323163 C17.3539519,4.6879956 17.7559775,4.85586523 18.0588188,5.15631877 C18.4309834,5.5256481 18.6007112,6.05364209 18.5127554,6.56863608 L18.5127554,6.56863608 Z M2.78078934,10.1154573 C2.3115561,9.88702867 1.98007417,9.44696639 1.89252519,8.93495998 L1.48724501,6.56169198 C1.3992892,6.04669799 1.56901706,5.518704 1.94110023,5.14937466 C2.24402296,4.84884039 2.64604853,4.6810515 3.07394825,4.67628752 L3.49078229,4.68129374 L3.49078229,8.87068666 C3.49078229,9.43622725 3.57035748,9.98303492 3.71624532,10.5023892 L2.78078934,10.1154573 Z M16.9302018,3.22981491 L16.6719486,3.23280249 L16.6719486,2.09937969 L16.5905834,2.09937969 C17.1747857,2.09937969 17.6483313,1.62944162 17.6483313,1.04968985 C17.6483313,0.46993807 17.1747857,0 16.5905834,0 L3.65351274,0 C3.06931043,0 2.59576482,0.46993807 2.59576482,1.04968985 C2.59576482,1.62944162 3.06931043,2.09937969 3.65351274,2.09937969 L3.49078229,2.09937969 L3.49078229,3.22779628 L3.07695876,3.22279007 L3.06979862,3.22279007 C2.25232221,3.22868448 1.48374631,3.54787094 0.905565023,4.12164756 C0.198501226,4.82332485 -0.123786426,5.82626312 0.0433377439,6.80449332 L0.448617925,9.17784206 C0.616555748,10.160917 1.25812054,11.0044639 2.16469187,11.4341908 L4.69043115,12.4799241 C5.64948305,13.7638563 7.1072224,14.6584342 8.77952185,14.8823412 L8.77952185,17.9254728 L5.19945199,17.9254728 L5.19321836,20.8695652 L14.7943148,20.8695652 L14.7943148,17.9254728 L11.2204786,17.9254728 L11.2204786,14.9019623 C12.9975764,14.7116454 14.5457939,13.7655519 15.5337305,12.3942532 L17.8014606,11.4562342 L17.8353086,11.4412156 C18.7418799,11.011408 19.3834447,10.1679418 19.5513825,9.18478616 L19.9566627,6.81151816 C20.1237869,5.83328797 19.8014992,4.83026895 19.094354,4.12859166 C18.5162541,3.55489579 17.7476782,3.23570933 16.9302018,3.22981491 Z" id="Fill-1" fill="#0AD0F4"></path>
                            <polygon id="Star" fill="#FFFFFF" points="10.4347826 9.56521739 8.39031217 10.6400591 8.78077128 8.36350782 7.12675994 6.75124524 9.41254739 6.41910088 10.4347826 4.34782609 11.4570178 6.41910088 13.7428053 6.75124524 12.0887939 8.36350782 12.4792531 10.6400591"></polygon>
                        </g>
                    </g>
                </g>
            </g>
        </g>
    </g>
</svg>
